HIERARCHY
ROOT Hips
{
  OFFSET 13.6774 106.653 -34.4427
  CHANNELS 6 Xposition Yposition Zposition Zrotation Xrotation Yrotation
  JOINT ToSpine
  {
    OFFSET -2.69724 7.43032 -0.144315
    CHANNELS 3 Zrotation Xrotation Yrotation
    JOINT Spine
    {
      OFFSET -0.0310711 10.7595 1.96963
      CHANNELS 3 Zrotation Xrotation Yrotation
      JOINT Spine1
      {
        OFFSET 19.9056 3.91189 0.764692
        CHANNELS 3 Zrotation Xrotation Yrotation
        JOINT Neck
        {
          OFFSET 25.9749 7.03908 -0.130764
          CHANNELS 3 Zrotation Xrotation Yrotation
          JOINT Head
          {
            OFFSET 9.52751 0.295786 -0.907742
            CHANNELS 3 Zrotation Xrotation Yrotation
            End Site
            {
              OFFSET 16.4037 0.713936 2.7358
            }
          }
        }
        JOINT LeftShoulder
        {
          OFFSET 17.7449 4.33886 11.7777
          CHANNELS 3 Zrotation Xrotation Yrotation
          JOINT LeftArm
          {
            OFFSET 0.911315 1.27913 9.80584
            CHANNELS 3 Zrotation Xrotation Yrotation
            JOINT LeftForeArm
            {
              OFFSET 28.6126 1.18197 -3.53199
              CHANNELS 3 Zrotation Xrotation Yrotation
              JOINT LeftHand
              {
                OFFSET 27.5088 0.0218783 0.327423
                CHANNELS 3 Zrotation Xrotation Yrotation
                End Site
                {
                  OFFSET 18.6038 -0.000155887 0.382096
                }
              }
            }
          }
        }
        JOINT RightShoulder
        {
          OFFSET 17.1009 2.89543 -12.2328
          CHANNELS 3 Zrotation Xrotation Yrotation
          JOINT RightArm
          {
            OFFSET 1.4228 0.178766 -10.211
            CHANNELS 3 Zrotation Xrotation Yrotation
            JOINT RightForeArm
            {
              OFFSET 28.733 1.87905 2.64907
              CHANNELS 3 Zrotation Xrotation Yrotation
              JOINT RightHand
              {
                OFFSET 27.4588 0.290562 -0.101845
                CHANNELS 3 Zrotation Xrotation Yrotation
                End Site
                {
                  OFFSET 17.8396 -0.255518 -0.000602873
                }
              }
            }
          }
        }
      }
    }
  }
  JOINT LeftUpLeg
  {
    OFFSET -5.61296 -2.22332 -10.2353
    CHANNELS 3 Zrotation Xrotation Yrotation
    JOINT LeftLeg
    {
      OFFSET 2.56703 -44.7417 -7.93097
      CHANNELS 3 Zrotation Xrotation Yrotation
      JOINT LeftFoot
      {
        OFFSET 3.16933 -46.5642 -3.96578
        CHANNELS 3 Zrotation Xrotation Yrotation
        JOINT LeftToeBase
        {
          OFFSET 0.346054 -6.02161 12.8035
          CHANNELS 3 Zrotation Xrotation Yrotation
          End Site
          {
            OFFSET 0.134235 -1.35082 5.13018
          }
        }
      }
    }
  }
  JOINT RightUpLeg
  {
    OFFSET -5.7928 -1.72406 10.6446
    CHANNELS 3 Zrotation Xrotation Yrotation
    JOINT RightLeg
    {
      OFFSET -2.57161 -44.7178 -7.85259
      CHANNELS 3 Zrotation Xrotation Yrotation
      JOINT RightFoot
      {
        OFFSET -3.10148 -46.5936 -4.03391
        CHANNELS 3 Zrotation Xrotation Yrotation
        JOINT RightToeBase
        {
          OFFSET -0.0828122 -6.13587 12.8035
          CHANNELS 3 Zrotation Xrotation Yrotation
          End Site
          {
            OFFSET -0.131328 -1.35082 5.13018
          }
        }
      }
    }
  }
}
MOTION
Frames: 19
Frame Time: 0.03333333333333333
0.0000 93.1000 0.0000 69.3813 74.5764 6.6335 -70.7974 -0.0083 88.0041 133.8791 69.7816 -38.9784 6.2161 24.8935 -2.5504 -142.6478 29.8379 166.4040 -165.5829 70.9099 -174.0009 2.6658 2.0257 -26.7177 -72.9737 31.9218 -98.4784 10.2819 15.8937 -29.2492 10.8648 -1.1055 -0.7866 -0.5709 0.9275 20.9394 -79.1180 -37.1082 102.4977 3.8157 -15.4572 18.5422 8.2768 -0.5717 0.5517 -37.2383 4.9964 77.5877 -2.7108 43.8889 -5.7129 -3.0213 5.7789 1.1301 -6.4048 -7.8772 23.9774 -36.3448 1.5368 96.9192 38.6782 81.5509 -14.2090 -8.7948 -11.4212 1.0026 6.2050 -1.0891 -16.6294 
0.0000 93.1000 0.0000 66.2754 61.7918 6.3512 -70.7808 0.4507 87.9475 142.4202 71.2091 -46.3504 7.4371 28.1250 -4.2033 -142.4111 34.2613 161.0309 -179.6232 74.9992 -156.8815 0.2465 1.8557 -26.8747 -67.9462 35.6471 -97.6167 6.2328 11.2887 -22.3674 12.9195 1.0479 -3.2014 -0.9808 1.9173 19.2161 -67.5167 -32.0984 119.7809 5.3591 -10.2100 22.7646 6.1565 2.0042 0.3245 -39.3583 11.2463 77.0187 -2.4974 37.9007 -11.0068 -3.3555 4.2759 -1.0183 -5.8809 -1.7074 23.0782 -32.1639 0.5798 99.2834 43.5292 83.1066 -15.7257 -10.0385 -14.9834 2.1733 6.6932 -2.4153 -16.9221 
0.0000 93.1000 0.0000 65.2361 48.6914 5.3130 -70.8546 0.1597 87.9730 149.2362 70.8968 -53.0761 8.0591 29.8231 -4.3595 -144.4534 36.4757 157.6585 164.3149 76.6308 -140.6735 1.7994 1.3978 -26.6958 -86.2573 40.7372 -83.4132 2.3384 18.1026 -15.8238 12.5599 -0.4068 -0.9454 -0.9873 3.9697 17.1729 -64.5602 -27.9637 132.0459 7.7571 -11.0031 26.5360 8.0768 0.1555 1.2017 -44.4621 14.2474 73.0392 -2.3161 33.8357 -11.5080 -2.9742 3.7377 0.0730 -6.6294 0.8018 21.6840 -24.2125 -3.1433 96.5710 62.3485 84.0074 -32.2262 -10.3637 -14.5482 1.5101 7.8879 -7.4847 -19.9792 
0.0000 93.1000 0.0000 65.5599 38.2622 6.8834 -70.7973 0.1684 87.9029 154.9906 68.7043 -57.9268 7.0378 30.1175 -4.6212 -145.7213 37.9011 153.9886 161.4587 78.2320 -135.6922 1.5142 0.5934 -24.7344 -108.4342 42.9706 -65.4179 -0.9017 23.3012 -8.6976 12.7038 0.0174 1.1286 -0.9880 4.5416 15.9556 -65.9099 -27.1705 142.6263 10.0150 -13.7556 30.3986 7.7159 0.3886 2.1818 -43.3515 16.9481 68.9519 -2.9317 40.0430 -12.1483 -3.7382 -0.7217 -0.4948 -7.1430 -18.8659 28.0255 -16.8503 -8.0998 90.5357 93.3935 84.2726 -67.5602 -9.8197 -14.7704 1.7269 8.2088 -14.1595 -16.4378 
0.0000 93.1000 0.0000 65.3417 32.9655 5.9660 -70.7721 0.1396 87.8335 156.1395 65.3025 -63.5007 5.4212 29.4912 -2.9966 -144.7732 38.3038 151.6495 160.5186 78.8882 -134.9533 1.3527 -0.7206 -23.7924 -115.2177 47.5167 -64.4232 -3.9251 24.2007 1.9768 13.3637 0.1113 2.3110 -0.8515 5.3133 14.5628 -66.2886 -33.7270 151.5775 12.8552 -15.1858 37.6630 7.7258 0.5174 3.5938 -38.9353 17.7459 75.5817 -5.2814 49.7969 -12.2243 -0.8329 -3.8521 -1.4110 -7.2615 -29.9578 23.5338 -9.9845 -15.2319 85.4537 120.1049 84.3584 -100.7328 -8.9554 -12.8889 1.5713 9.5544 -18.8902 -15.1097 
0.0000 93.1000 0.0000 64.2165 32.5473 3.7650 -70.7906 0.2629 87.7946 155.0550 60.9734 -67.1433 4.2256 27.5347 -0.0565 -147.7501 38.0927 147.2018 160.1553 79.2217 -135.7416 0.2713 -2.9819 -23.4094 -117.1175 50.6592 -73.3758 -4.4332 29.0330 8.4311 11.7279 0.7164 1.4561 -0.7573 6.0126 14.7311 -65.2307 -37.8439 156.9221 12.4689 -12.3867 45.4744 7.6531 1.3290 3.7346 -33.1050 17.5983 83.3074 -6.5043 56.0323 -13.2880 3.7040 -2.8304 -2.6755 -7.9806 -36.1492 19.6529 -5.2136 -21.3262 83.6174 124.1836 84.0196 -112.1491 -9.1153 -11.0957 1.8873 9.9584 -19.2221 -16.7494 
0.0000 93.1000 0.0000 60.6427 32.1538 6.3437 -70.8045 0.2306 87.8058 153.0682 58.5154 -65.2256 3.1004 26.1156 0.5014 -149.0054 37.6598 144.9223 163.5038 79.1741 -138.1599 0.1509 -5.2936 -23.9409 -116.1510 51.9516 -85.2849 -5.0397 35.8777 9.5086 10.2964 0.4829 0.7699 -0.8072 5.4560 15.9165 -62.4531 -36.5421 162.2094 13.5984 -11.3654 49.5815 8.2513 1.1908 4.6329 -24.4543 14.4837 80.9384 -8.4258 63.2600 -12.0306 4.0794 -1.9426 -2.4584 -8.8781 -39.9555 18.1897 0.1288 -25.4175 78.9264 118.6521 85.1091 -113.2874 -7.7582 -10.0134 1.5915 10.2467 -18.7380 -17.8186 
0.0000 93.1000 0.0000 56.1882 31.3529 9.5034 -70.8163 0.1376 87.8418 153.0588 56.7769 -66.0833 3.3297 25.0228 0.7742 -150.1698 38.3381 145.2818 166.3969 79.2321 -136.4880 0.1653 -8.0747 -24.9536 -113.0503 50.5429 -99.2494 -3.8211 38.3661 8.9500 10.9128 -0.0521 0.5932 -0.9172 5.0343 17.1954 -59.4040 -37.0927 163.7514 18.6937 -14.0745 53.1457 8.5130 0.6118 4.7987 -18.0048 11.3649 80.5971 -10.3677 67.1221 -9.7267 4.9375 -1.6927 -2.0145 -8.9902 -41.5072 18.2163 4.8577 -27.2308 76.8885 125.6119 84.2524 -121.0223 -6.8542 -9.5418 1.1105 9.5544 -16.5205 -18.4747 
0.0000 93.1000 0.0000 54.4593 31.4904 6.4278 -70.8463 0.1716 87.8773 151.8810 55.2989 -66.8739 5.9018 24.0353 0.0277 -151.8499 38.0811 145.4773 167.9169 78.7913 -138.1459 -0.2017 -10.2113 -24.5101 -111.8368 49.0439 -114.0037 -2.0129 37.8350 8.9419 12.7465 0.1045 0.7202 -1.0240 4.7311 19.2257 -57.0262 -35.0886 165.9255 19.3868 -15.9761 49.4441 8.4247 0.5657 2.8539 -15.6498 9.4813 83.2781 -9.7747 68.5018 -8.6982 6.0375 -0.7222 -2.0289 -9.1611 -41.9962 17.8560 7.8544 -27.2870 76.3568 134.0282 84.2202 -129.4282 -6.5777 -7.8018 1.0164 9.8048 -20.1348 -18.2359 
0.0000 93.1000 0.0000 54.1460 29.4748 5.1106 -70.8934 0.0731 87.9166 151.8628 54.5697 -68.8659 8.4607 23.9945 -1.3451 -150.8981 36.9909 142.8865 174.4303 77.9909 -142.1736 0.2904 -11.5998 -21.7450 -111.4779 51.0209 -126.0217 -0.0354 37.9550 8.9687 14.9949 -0.5671 1.5710 -1.2239 4.0238 21.3873 -55.3819 -33.2298 166.6232 13.4304 -14.2645 41.3767 9.0924 -0.4822 -0.5558 -14.7456 9.7860 85.7234 -10.9664 69.9781 -7.4776 6.0127 -0.9227 -1.2107 -8.9165 -42.7784 15.8294 7.9538 -26.4726 75.7857 147.4537 82.0459 -144.9681 -7.0519 -7.7509 0.8556 11.6508 -22.5256 -17.9958 
0.0000 93.1000 0.0000 53.2464 29.2434 5.3465 -70.9648 0.0872 87.9619 151.1463 53.5553 -69.2106 10.1637 23.4762 -2.0060 -152.8453 36.6146 144.9449 171.8958 78.1096 -140.2633 0.3323 -11.9709 -19.3217 -103.0973 53.1381 -143.8864 -0.7779 37.0592 8.7782 16.2484 -0.6771 1.5732 -1.3420 3.8808 22.9965 -54.3015 -34.4033 165.6254 10.3427 -11.8376 37.4158 11.5371 -1.1210 -6.2972 -13.0863 9.6129 86.6158 -12.2535 70.9873 -6.7364 7.1573 -0.7112 -1.1792 -8.9055 -43.0547 15.9891 8.6771 -27.3609 74.6622 156.0706 79.0423 -154.1522 -7.2192 -7.6933 0.8542 12.2388 -27.2544 -18.7370 
0.0000 93.1000 0.0000 51.9950 30.5422 4.5876 -70.9995 0.0700 87.9719 150.1056 52.3619 -69.5010 11.1072 22.1904 -1.4632 -153.1547 36.7398 144.7009 175.0053 77.4118 -139.8464 0.5397 -12.5061 -18.8822 -92.8856 51.0872 -159.7127 -3.7266 36.3225 8.6707 13.9541 -0.9401 0.4655 -1.3806 3.9236 24.3745 -52.3933 -34.8514 163.1976 7.8404 -8.2662 35.5394 15.0363 -1.6229 -9.7319 -12.8422 8.7497 87.2015 -12.6678 71.1082 -7.0995 7.0072 -0.6335 -0.8052 -10.4075 -43.2920 15.0865 8.5883 -28.6312 75.1305 160.1100 76.1389 -156.9708 -7.1789 -8.0294 0.7421 12.1146 -29.4129 -16.9570 
0.0000 93.1000 0.0000 51.1637 30.4974 4.7452 -70.9930 0.1809 87.9688 149.0704 51.4275 -68.2833 10.3251 21.2907 -1.0041 -152.9368 36.0292 144.4174 174.2118 76.9311 -139.6002 -0.1110 -12.8602 -20.4576 -84.7532 47.9919 -168.9183 -2.9787 37.4437 0.0488 9.1729 -0.4723 -1.3291 -1.2665 3.2736 27.1698 -50.0753 -37.2992 158.5155 7.4492 -8.0378 37.4720 14.4898 -1.1382 -12.0163 -12.6863 9.7137 89.5359 -12.8806 72.4134 -8.2496 6.9413 -1.6515 -1.5740 -8.9263 -42.3097 13.7913 8.8358 -29.5144 74.6395 161.6129 73.8885 -159.5444 -6.9386 -7.1649 0.8929 11.9685 -29.8998 -16.7037 
0.0000 93.1000 0.0000 50.9024 30.6369 3.6061 -70.9845 0.1279 88.0096 146.1222 51.6683 -66.4407 10.0638 19.9317 -1.0993 -154.1034 35.7432 146.7959 176.0264 76.2228 -142.3317 0.0588 -13.4808 -18.8763 -76.1452 38.2483 -176.1142 5.9914 28.9021 -18.2125 7.9334 -0.8039 -2.8026 -1.2782 2.9260 27.4042 -47.0193 -39.8663 157.2782 6.7839 -6.8994 39.6611 14.2591 -1.3682 -12.4033 -13.9441 8.4047 92.3433 -11.6386 70.8786 -9.9002 7.4480 -2.8960 -1.7024 -9.3017 -40.7755 13.9437 8.6409 -30.3559 75.9557 162.4450 73.8924 -158.8755 -7.3003 -6.6458 1.0269 12.1299 -30.8805 -15.6346 
0.0000 93.1000 0.0000 51.0134 30.5687 2.1561 -71.0032 -0.0613 88.0626 143.2079 51.5463 -63.5937 10.7343 17.3673 -2.3872 -154.8043 36.4608 148.3227 177.8105 75.2066 -144.2542 1.0963 -14.2522 -17.5383 -68.8761 27.5388 -178.9410 12.9692 23.1563 -26.7655 10.5515 -1.9087 -3.9370 -1.3901 2.7237 28.6572 -42.8845 -38.6845 157.3047 3.5852 -3.1539 41.2677 15.8505 -2.4214 -11.6573 -15.6865 8.3375 94.5941 -10.9892 67.9457 -12.2023 6.7759 -2.7035 -0.9190 -9.6147 -41.7935 13.5441 8.9109 -30.2448 75.5549 161.9159 73.8439 -156.4879 -7.0486 -7.6553 0.6547 12.4736 -30.1308 -15.5820 
0.0000 93.1000 0.0000 50.1556 28.1968 -1.0876 -71.0192 -0.4067 88.3343 139.2618 52.6254 -60.1526 8.8018 17.1678 -4.6177 -159.1695 35.8981 150.6424 178.2044 74.9933 -145.2597 1.3259 -12.4962 -17.5248 -64.8800 26.5235 176.0578 17.2449 26.0752 -32.9223 11.6715 -2.7053 -2.7513 -1.3080 2.7366 30.0726 -39.5004 -40.5384 157.8904 -1.9242 2.9668 44.1176 20.6407 -3.7883 -9.6580 -20.9986 9.1725 97.9628 -7.2026 62.7975 -14.7009 6.5191 -4.1728 0.7974 -9.0462 -40.3314 15.6567 8.1147 -30.4290 74.7307 157.3450 77.0233 -149.5504 -8.7810 -6.0331 -0.0468 12.1256 -29.9183 -16.8820 
0.0000 93.1000 0.0000 50.3366 24.3346 -4.8927 -70.9243 0.1811 87.9965 136.8601 54.2564 -59.5898 7.9624 16.3260 -3.0524 -160.0393 36.3400 155.3809 -180.8342 74.6007 -147.3752 0.1928 -12.9212 -18.6777 -59.6511 27.8743 -178.3206 19.3703 25.7281 -34.8422 13.3336 -0.8310 -4.4223 -1.6384 3.2892 29.8763 -36.9318 -38.8857 154.0474 -11.4185 11.9167 48.3867 18.1858 -1.2777 -12.4914 -27.5208 9.3648 97.1231 -6.7595 56.9734 -17.5248 5.2450 -5.9330 -2.3113 -7.8723 -37.7583 18.0554 3.8411 -27.2545 71.5860 145.3168 81.8922 -133.6279 -7.2085 -4.9434 1.3926 12.2917 -28.3006 -15.9035 
0.0000 93.1000 0.0000 51.2354 18.4001 -6.6035 -70.9547 0.0095 88.0269 137.2368 56.8412 -58.5576 6.8780 17.6401 -3.4695 -161.0995 35.1283 158.0542 -175.1895 74.6897 -153.6326 1.5718 -10.5013 -22.7547 -57.7864 29.1926 -169.9717 18.7084 28.7695 -32.0728 16.6686 -1.7703 -1.8587 -1.5448 2.8900 30.1694 -36.2676 -37.8877 152.5497 -24.7612 21.1475 53.4674 21.5705 -2.7604 -14.2674 -34.7666 9.5550 94.4718 -6.0101 53.3735 -15.1676 2.2031 -4.8723 -0.6988 -7.8081 -36.8703 22.2142 -4.2437 -24.2247 68.7540 122.3638 83.9680 -111.7352 -8.2219 -6.6894 0.8221 11.1866 -27.2798 -12.6143 
0.0000 93.1000 0.0000 51.3300 12.5805 -9.5517 -70.9715 0.1309 88.0293 137.2052 58.2549 -57.6028 6.0900 18.4210 -2.0246 -161.0117 34.6902 159.2056 -164.3966 74.0513 -164.5292 1.4387 -8.8209 -26.1283 -60.9656 38.3233 -157.7736 12.8816 33.1035 -23.1848 20.1177 -1.2879 -0.2610 -1.5411 2.4940 31.1291 -38.3611 -39.1164 150.3777 -41.6091 29.2324 61.4022 20.9121 -2.6861 -17.3002 -36.6715 9.2172 91.4318 -5.8696 57.2322 -8.0486 -0.3334 -1.6694 -0.4413 -7.1399 -30.0932 25.2421 -10.1372 -18.5978 68.5178 75.4908 85.0241 -62.6788 -8.4316 -7.6752 0.8356 11.4153 -26.3608 -11.6557 
